<svg width="136" height="38" viewBox="10 0 136 38" fill="none" xmlns="http://www.w3.org/2000/svg">
<g filter="url(#filter0_d_38_154)">
<path d="M137.424 26.6154H140.753C141.718 26.6154 142.544 26.2755 143.229 25.5958C143.907 24.9245 144.246 24.1105 144.246 23.1539C144.246 22.1972 143.907 21.3832 143.229 20.7119C142.544 20.0322 141.718 19.6923 140.753 19.6923H137.424C136.078 19.6923 134.926 19.2182 133.969 18.2699C133.012 17.3217 132.533 16.1804 132.533 14.8461C132.533 13.5119 133.012 12.3706 133.969 11.4224C134.926 10.4741 136.078 10 137.424 10H140.753C142.107 10 143.259 10.4741 144.208 11.4224C145.165 12.3706 145.643 13.5119 145.643 14.8461C145.643 15.0392 145.576 15.2028 145.44 15.3371C145.304 15.4713 145.139 15.5385 144.944 15.5385C144.758 15.5385 144.593 15.4713 144.449 15.3371C144.313 15.2028 144.246 15.0392 144.246 14.8461C144.246 13.8895 143.907 13.0713 143.229 12.3916C142.544 11.7203 141.718 11.3846 140.753 11.3846H137.424C136.459 11.3846 135.637 11.7203 134.96 12.3916C134.274 13.0713 133.931 13.8895 133.931 14.8461C133.931 15.8028 134.274 16.6168 134.96 17.2881C135.637 17.9678 136.459 18.3077 137.424 18.3077H140.753C142.107 18.3077 143.259 18.7818 144.208 19.7301C145.165 20.6783 145.643 21.8196 145.643 23.1539C145.643 24.4881 145.165 25.6294 144.208 26.5776C143.259 27.5259 142.107 28 140.753 28H137.424C136.078 28 134.926 27.5259 133.969 26.5776C133.012 25.6294 132.533 24.4881 132.533 23.1539C132.533 22.9608 132.601 22.7972 132.737 22.6629C132.872 22.5287 133.037 22.4615 133.232 22.4615C133.427 22.4615 133.592 22.5287 133.728 22.6629C133.863 22.7972 133.931 22.9608 133.931 23.1539C133.931 24.1105 134.274 24.9245 134.96 25.5958C135.637 26.2755 136.459 26.6154 137.424 26.6154Z" fill="white"/>
<path d="M129.79 27.7986C129.654 27.9329 129.489 28 129.294 28C129.099 28 128.934 27.9329 128.798 27.7986C128.663 27.6643 128.595 27.5007 128.595 27.3077V10.6923C128.595 10.4993 128.663 10.3357 128.798 10.2014C128.934 10.0671 129.099 10 129.294 10C129.489 10 129.654 10.0671 129.79 10.2014C129.925 10.3357 129.993 10.4993 129.993 10.6923V27.3077C129.993 27.5007 129.925 27.6643 129.79 27.7986Z" fill="white"/>
<path fill-rule="evenodd" clip-rule="evenodd" d="M114.4 21.379H118.865L124.823 27.7734C124.958 27.9245 125.128 28 125.331 28C125.517 28 125.678 27.9371 125.814 27.8112C125.949 27.6853 126.021 27.5259 126.03 27.3329C126.038 27.1399 125.979 26.9762 125.852 26.842L120.732 21.3413C122.172 21.1818 123.383 20.565 124.365 19.4909C125.348 18.4084 125.839 17.1412 125.839 15.6895C125.839 14.1203 125.276 12.7776 124.15 11.6615C123.031 10.5538 121.681 10 120.097 10H113.644C113.449 10 113.284 10.0671 113.149 10.2014C113.013 10.3357 112.945 10.4993 112.945 10.6923C112.945 10.7443 112.95 10.7943 112.96 10.842V20.537C112.95 20.5848 112.945 20.6347 112.945 20.6867V27.3077C112.945 27.5007 113.013 27.6643 113.149 27.7986C113.284 27.9329 113.449 28 113.644 28C113.65 28 113.657 27.9999 113.663 27.9998C113.668 27.9999 113.674 28 113.68 28C114.078 28 114.4 27.6777 114.4 27.28V21.379ZM114.4 19.9944H120.097C121.291 19.9944 122.316 19.5748 123.171 18.7357C124.018 17.8881 124.442 16.8727 124.442 15.6895C124.442 14.4979 124.018 13.4825 123.171 12.6434C122.316 11.8042 121.291 11.3846 120.097 11.3846H114.4V19.9944Z" fill="white"/>
<path d="M110.24 27.0308C110.341 27.2574 110.32 27.4755 110.176 27.6853C110.041 27.8951 109.846 28 109.592 28H100.509C100.314 28 100.149 27.9329 100.014 27.7986C99.8781 27.6643 99.8104 27.5007 99.8104 27.3077C99.8104 27.1147 99.8781 26.951 100.014 26.8168C100.149 26.6825 100.314 26.6154 100.509 26.6154H108.525L102.262 12.4168L95.5678 27.5846C95.4408 27.8615 95.2248 28 94.9198 28C94.8266 28 94.7337 27.979 94.6405 27.9371C94.4626 27.8615 94.3399 27.7357 94.2718 27.5594C94.2042 27.3832 94.2085 27.207 94.2848 27.0308L101.614 10.4154C101.741 10.1385 101.957 10 102.262 10C102.567 10 102.779 10.1385 102.897 10.4154L110.24 27.0308Z" fill="white"/>
<path d="M90.9184 28H79.0409C78.8462 28 78.6813 27.9329 78.5456 27.7986C78.4102 27.6643 78.3425 27.5007 78.3425 27.3077V10.6923C78.3425 10.4993 78.4102 10.3357 78.5456 10.2014C78.6813 10.0671 78.8462 10 79.0409 10C79.2357 10 79.4009 10.0671 79.5366 10.2014C79.672 10.3357 79.7397 10.4993 79.7397 10.6923V26.6154H90.9184C91.1132 26.6154 91.2784 26.6825 91.4138 26.8168C91.5491 26.951 91.6172 27.1147 91.6172 27.3077C91.6172 27.5007 91.5491 27.6643 91.4138 27.7986C91.2784 27.9329 91.1132 28 90.9184 28Z" fill="white"/>
<path d="M61.2819 24.3874C62.7896 25.8727 64.6019 26.6154 66.719 26.6154C68.8362 26.6154 70.6484 25.8727 72.1558 24.3874C73.6548 22.8937 74.4043 21.0979 74.4043 19C74.4043 16.9021 73.6548 15.1063 72.1558 13.6126C70.6484 12.1273 68.8362 11.3846 66.719 11.3846C64.6019 11.3846 62.7896 12.1273 61.2819 13.6126C59.7833 15.1063 59.0338 16.9021 59.0338 19C59.0338 21.0979 59.7833 22.8937 61.2819 24.3874ZM60.2912 12.6308C62.0696 10.8769 64.2123 10 66.719 10C69.2257 10 71.3684 10.8769 73.1468 12.6308C74.9166 14.393 75.8015 16.5161 75.8015 19C75.8015 21.4839 74.9166 23.607 73.1468 25.3692C71.3684 27.1231 69.2257 28 66.719 28C64.2123 28 62.0696 27.1231 60.2912 25.3692C58.5211 23.607 57.6362 21.4839 57.6362 19C57.6362 16.5161 58.5211 14.393 60.2912 12.6308Z" fill="white"/>
<path d="M46.8773 26.6154H50.2055C51.1707 26.6154 51.9965 26.2755 52.6827 25.5958C53.3598 24.9245 53.6986 24.1105 53.6986 23.1539C53.6986 22.1972 53.3598 21.3832 52.6827 20.7119C51.9965 20.0322 51.1707 19.6923 50.2055 19.6923H46.8773C45.5307 19.6923 44.379 19.2182 43.422 18.2699C42.465 17.3217 41.9866 16.1804 41.9866 14.8461C41.9866 13.5119 42.465 12.3706 43.422 11.4224C44.379 10.4741 45.5307 10 46.8773 10H50.2055C51.5606 10 52.7122 10.4741 53.6608 11.4224C54.6177 12.3706 55.0961 13.5119 55.0961 14.8461C55.0961 15.0392 55.0284 15.2028 54.8927 15.3371C54.7574 15.4713 54.5921 15.5385 54.3974 15.5385C54.2112 15.5385 54.046 15.4713 53.902 15.3371C53.7666 15.2028 53.6986 15.0392 53.6986 14.8461C53.6986 13.8895 53.3598 13.0713 52.6827 12.3916C51.9965 11.7203 51.1707 11.3846 50.2055 11.3846H46.8773C45.9118 11.3846 45.0903 11.7203 44.4128 12.3916C43.7269 13.0713 43.3839 13.8895 43.3839 14.8461C43.3839 15.8028 43.7269 16.6168 44.4128 17.2881C45.0903 17.9678 45.9118 18.3077 46.8773 18.3077H50.2055C51.5606 18.3077 52.7122 18.7818 53.6608 19.7301C54.6177 20.6783 55.0961 21.8196 55.0961 23.1539C55.0961 24.4881 54.6177 25.6294 53.6608 26.5776C52.7122 27.5259 51.5606 28 50.2055 28H46.8773C45.5307 28 44.379 27.5259 43.422 26.5776C42.465 25.6294 41.9866 24.4881 41.9866 23.1539C41.9866 22.9608 42.0543 22.7972 42.1898 22.6629C42.3253 22.5287 42.4905 22.4615 42.6852 22.4615C42.88 22.4615 43.0452 22.5287 43.1807 22.6629C43.3162 22.7972 43.3839 22.9608 43.3839 23.1539C43.3839 24.1105 43.7269 24.9245 44.4128 25.5958C45.0903 26.2755 45.9118 26.6154 46.8773 26.6154Z" fill="white"/>
<path d="M39.2424 26.8168C39.3779 26.951 39.4456 27.1147 39.4456 27.3077C39.4456 27.5007 39.3779 27.6643 39.2424 27.7986C39.0984 27.9329 38.9332 28 38.7469 28H27.2126C27.0178 28 26.8527 27.9329 26.7172 27.7986C26.5817 27.6643 26.5139 27.5007 26.5139 27.3077C26.5139 27.1147 26.5817 26.951 26.7172 26.8168C26.8527 26.6825 27.0178 26.6154 27.2126 26.6154H38.7469C38.9332 26.6154 39.0984 26.6825 39.2424 26.8168ZM27.2126 10H38.7469C38.9332 10 39.0984 10.0671 39.2424 10.2014C39.3779 10.3357 39.4456 10.4993 39.4456 10.6923C39.4456 10.8853 39.3779 11.049 39.2424 11.1832C39.0984 11.3175 38.9332 11.3846 38.7469 11.3846H27.2126C27.0178 11.3846 26.8527 11.3175 26.7172 11.1832C26.5817 11.049 26.5139 10.8853 26.5139 10.6923C26.5139 10.4993 26.5817 10.3357 26.7172 10.2014C26.8527 10.0671 27.0178 10 27.2126 10ZM27.2126 18.3077H38.7469C38.9332 18.3077 39.0984 18.3748 39.2424 18.5091C39.3779 18.6433 39.4456 18.807 39.4456 19C39.4456 19.193 39.3779 19.3567 39.2424 19.4909C39.0984 19.6252 38.9332 19.6923 38.7469 19.6923H27.2126C27.0178 19.6923 26.8527 19.6252 26.7172 19.4909C26.5817 19.3567 26.5139 19.193 26.5139 19C26.5139 18.807 26.5817 18.6433 26.7172 18.5091C26.8527 18.3748 27.0178 18.3077 27.2126 18.3077Z" fill="white"/>
<path fill-rule="evenodd" clip-rule="evenodd" d="M23.9733 19C23.9733 16.5161 23.0883 14.393 21.3184 12.6308C19.54 10.8769 17.3974 10 14.8907 10H10.6987C10.5039 10 10.3387 10.0671 10.2032 10.2014C10.0677 10.3357 10 10.4993 10 10.6923C10 10.6971 10 10.7018 10.0001 10.7065C10 10.711 10 10.7155 10 10.72V27.28C10 27.2845 10 27.289 10.0001 27.2935C10 27.2982 10 27.3029 10 27.3077C10 27.5007 10.0677 27.6643 10.2032 27.7986C10.3387 27.9329 10.5039 28 10.6987 28H14.8907C17.3974 28 19.54 27.1231 21.3184 25.3692C23.0883 23.607 23.9733 21.4839 23.9733 19ZM11.44 26.6154H14.8907C17.0078 26.6154 18.8201 25.8727 20.3276 24.3874C21.8265 22.8937 22.576 21.0979 22.576 19C22.576 16.9021 21.8265 15.1063 20.3276 13.6126C18.8201 12.1273 17.0078 11.3846 14.8907 11.3846H11.44V26.6154Z" fill="white"/>
</g>
<defs>
<filter id="filter0_d_38_154" x="0" y="0" width="155.643" height="38" filterUnits="userSpaceOnUse" color-interpolation-filters="sRGB">
<feFlood flood-opacity="0" result="BackgroundImageFix"/>
<feColorMatrix in="SourceAlpha" type="matrix" values="0 0 0 0 0 0 0 0 0 0 0 0 0 0 0 0 0 0 127 0" result="hardAlpha"/>
<feOffset/>
<feGaussianBlur stdDeviation="5"/>
<feComposite in2="hardAlpha" operator="out"/>
<feColorMatrix type="matrix" values="0 0 0 0 1 0 0 0 0 1 0 0 0 0 1 0 0 0 0.25 0"/>
<feBlend mode="normal" in2="BackgroundImageFix" result="effect1_dropShadow_38_154"/>
<feBlend mode="normal" in="SourceGraphic" in2="effect1_dropShadow_38_154" result="shape"/>
</filter>
</defs>
</svg>
